<?xml version="1.0" encoding="utf-8"?>
<svg viewBox="603.326 137.23 116.93 90.945" xmlns="http://www.w3.org/2000/svg">
  <g>
    <g>
      <path d="M707,160.5c-11.4-17.9-35.8-22.8-54.5-11a41.7,41.7,0,0,0-13.6,14.1l-33.6,58.9a2.3,2.3,0,0,0,0,2.4,2.4,2.4,0,0,0,2.3,1.1l67.5-5.1a43.8,43.8,0,0,0,18.6-6.3C712.4,202.7,718.3,178.5,707,160.5Z" transform="translate(0)" fill-opacity="0.22"/>
      <path class="winIndicator" d="M711.9,157.4a38.4,38.4,0,0,0-66,1.8l-31.5,57.5a2.1,2.1,0,0,0,0,2.4,2.6,2.6,0,0,0,2.2,1.2l65.6-3.9a39.6,39.6,0,0,0,17.9-5.9A38.5,38.5,0,0,0,711.9,157.4Z" transform="translate(0)" style="fill: rgb(255, 255, 255);"/>
      <path d="M681.7,166.9a9.3,9.3,0,0,0-6.6,4.8l-.8,2.1a14.9,14.9,0,0,0-.2,2.1,8.8,8.8,0,0,0,1.1,4.2,9.2,9.2,0,0,0,2.9,3,7.6,7.6,0,0,0,2.9,1.3l1.1.2a8.6,8.6,0,0,0,4.2-.6,8.4,8.4,0,0,0,3.4-2.5,7.4,7.4,0,0,0,2-3.8,8.5,8.5,0,0,0-.1-4.2,8.4,8.4,0,0,0-2.1-3.8,7.4,7.4,0,0,0-3.5-2.3l-1-.3A12.2,12.2,0,0,0,681.7,166.9Z" transform="translate(0)" fill="#ccc"/>
    </g>
  </g>
</svg>